<svg width="208" height="208" viewBox="0 0 208 208" fill="none" xmlns="http://www.w3.org/2000/svg">
<circle cx="104" cy="104" r="104" fill="black"/>
<path d="M51.9279 74.0335C65.9393 49.9768 88.6605 45.9604 88.6605 45.9604C88.6605 45.9604 110.839 38.3603 134.508 51.9061C158.178 65.4518 113.906 55.9961 113.906 79.9981C113.906 104 147.154 86.6362 154.058 90.587C160.961 94.5379 169.622 111.277 156.468 133.86C143.314 156.444 119.735 161.934 119.735 161.934C119.735 161.934 98.0501 169.816 73.8875 155.988C49.7249 142.16 96.2551 152.16 96.2551 128.252C96.2551 104.343 61.2416 121.258 54.338 117.307C47.4344 113.356 37.9165 98.0901 51.9279 74.0335Z" fill="white"/>
</svg>
